<svg xmlns="http://www.w3.org/2000/svg">
<!-- Ikony atributů osobností (docs/design.md, oddíl Atributy). Generováno skriptem scripts/ikony.mjs; needitovat ručně. -->
  <symbol id="cup" viewBox="0 0 24 24"><path d="M6 4h12l-1.5 6.5a4.5 4.5 0 0 1-9 0zM12 15v4.5M8 20h8" fill="none" stroke="currentColor" stroke-width="1.6" stroke-linecap="round" stroke-linejoin="round"/></symbol>
  <symbol id="cave" viewBox="0 0 24 24"><path d="M3 20v-7a9 9 0 0 1 18 0v7M2 20h20M12 19.5c-2.2-1.6-1.8-3.8 0-5.5 1.8 1.7 2.2 3.9 0 5.5z" fill="none" stroke="currentColor" stroke-width="1.6" stroke-linecap="round" stroke-linejoin="round"/></symbol>
  <symbol id="scales" viewBox="0 0 24 24"><path d="M12 4v16M8 20h8M4 7h16M6 7l-3 6a3 3 0 0 0 6 0zM18 7l-3 6a3 3 0 0 0 6 0z" fill="none" stroke="currentColor" stroke-width="1.6" stroke-linecap="round" stroke-linejoin="round"/></symbol>
  <symbol id="lantern" viewBox="0 0 24 24"><path d="M9 3h6M12 3v2M8 5h8l-1 3v8l1 3H8l1-3V8zM12 10.5v3" fill="none" stroke="currentColor" stroke-width="1.6" stroke-linecap="round" stroke-linejoin="round"/></symbol>
  <symbol id="scroll" viewBox="0 0 24 24"><path d="M7 4h10a2 2 0 0 1 2 2v12a2 2 0 0 1-2 2H7M7 4a2 2 0 0 0-2 2v12a2 2 0 0 0 2 2M9 9h7M9 12.5h7M9 16h4" fill="none" stroke="currentColor" stroke-width="1.6" stroke-linecap="round" stroke-linejoin="round"/></symbol>
  <symbol id="helmet" viewBox="0 0 24 24"><path d="M5 19v-6a7 7 0 0 1 14 0v6h-4.5v-4h-5v4zM12 6V3" fill="none" stroke="currentColor" stroke-width="1.6" stroke-linecap="round" stroke-linejoin="round"/></symbol>
  <symbol id="dove" viewBox="0 0 24 24"><path d="M3 14c3.5 0 6-2 8-6 1.5 2 1.8 4 1 6l8-2.5-3.5 4.5c-3 3.5-8.5 3.5-12 1z" fill="none" stroke="currentColor" stroke-width="1.6" stroke-linecap="round" stroke-linejoin="round"/></symbol>
  <symbol id="sprig" viewBox="0 0 24 24"><path d="M12 21V9M12 9c-3 0-5-2-5-5 3 0 5 2 5 5zM12 9c3 0 5-2 5-5-3 0-5 2-5 5zM12 15c-3 0-5-1.5-5-4 3 0 5 1.5 5 4z" fill="none" stroke="currentColor" stroke-width="1.6" stroke-linecap="round" stroke-linejoin="round"/></symbol>
  <symbol id="orbit" viewBox="0 0 24 24"><path d="M12 14a2 2 0 1 0 0-4 2 2 0 0 0 0 4zM2.5 12c0-2.2 4.3-4 9.5-4s9.5 1.8 9.5 4-4.3 4-9.5 4-9.5-1.8-9.5-4zM18 2.5l.8 1.7 1.7.8-1.7.8L18 7.5l-.8-1.7-1.7-.8 1.7-.8z" fill="none" stroke="currentColor" stroke-width="1.6" stroke-linecap="round" stroke-linejoin="round"/></symbol>
  <symbol id="ship" viewBox="0 0 24 24"><path d="M3 16h18l-3 4H6zM12 4v12M12 4l6 9h-6" fill="none" stroke="currentColor" stroke-width="1.6" stroke-linecap="round" stroke-linejoin="round"/></symbol>
  <symbol id="crutch" viewBox="0 0 24 24"><path d="M9 4h6M12 4v17M10 21h4M12 9h3" fill="none" stroke="currentColor" stroke-width="1.6" stroke-linecap="round" stroke-linejoin="round"/></symbol>
  <symbol id="sprout" viewBox="0 0 24 24"><path d="M12 21v-8M12 13C12 8 9 5.5 4.5 5.5 4.5 10 7.5 13 12 13zM12 15c0-4 2.5-6.5 7.5-6.5 0 4-3 6.5-7.5 6.5z" fill="none" stroke="currentColor" stroke-width="1.6" stroke-linecap="round" stroke-linejoin="round"/></symbol>
  <symbol id="heart" viewBox="0 0 24 24"><path d="M12 20s-7-4.4-7-9.5A3.8 3.8 0 0 1 12 8.2a3.8 3.8 0 0 1 7 2.3C19 15.6 12 20 12 20zM12 6.5c-1-1-1-2.5 0-3.5 1 1 1 2.5 0 3.5z" fill="none" stroke="currentColor" stroke-width="1.6" stroke-linecap="round" stroke-linejoin="round"/></symbol>
  <symbol id="axes" viewBox="0 0 24 24"><path d="M4 3v17h17M4 15l5-5 4 3 7-7M17 6h3v3" fill="none" stroke="currentColor" stroke-width="1.6" stroke-linecap="round" stroke-linejoin="round"/></symbol>
  <symbol id="star" viewBox="0 0 24 24"><path d="M12 3.5l2.4 5 5.4.6-4 3.8 1.1 5.4-4.9-2.7-4.9 2.7 1.1-5.4-4-3.8 5.4-.6z" fill="none" stroke="currentColor" stroke-width="1.6" stroke-linecap="round" stroke-linejoin="round"/></symbol>
  <symbol id="hammer" viewBox="0 0 24 24"><path d="M5 8.5 10 4l3.5 3.5-5 4.5zM11.5 9.5l8 8.5-2 2-8-8.5" fill="none" stroke="currentColor" stroke-width="1.6" stroke-linecap="round" stroke-linejoin="round"/></symbol>
  <symbol id="pen" viewBox="0 0 24 24"><path d="M4 20l1-4L16 5l3 3L8 19zM14 7l3 3" fill="none" stroke="currentColor" stroke-width="1.6" stroke-linecap="round" stroke-linejoin="round"/></symbol>
  <symbol id="keys" viewBox="0 0 24 24"><path d="M8.5 15.5a4 4 0 1 1 0-8 4 4 0 0 1 0 8zM12.5 11.5H21M18 11.5v3M21 11.5v2.5" fill="none" stroke="currentColor" stroke-width="1.6" stroke-linecap="round" stroke-linejoin="round"/></symbol>
  <symbol id="hourglass" viewBox="0 0 24 24"><path d="M7 3h10M7 21h10M8 3c0 4.5 8 5 8 9s-8 4.5-8 9M16 3c0 4.5-8 5-8 9s8 4.5 8 9" fill="none" stroke="currentColor" stroke-width="1.6" stroke-linecap="round" stroke-linejoin="round"/></symbol>
  <symbol id="lens" viewBox="0 0 24 24"><path d="M12 3c2.8 3 2.8 15 0 18-2.8-3-2.8-15 0-18zM3 12h5M16 12h5" fill="none" stroke="currentColor" stroke-width="1.6" stroke-linecap="round" stroke-linejoin="round"/></symbol>
  <symbol id="laurel" viewBox="0 0 24 24"><path d="M12 20C7 18 5 13 6 7M12 20c5-2 7-7 6-13M6 10c1.5 0 2.5 1 2.5 2.5M5.5 14c1.5-.3 2.8.5 3.2 2M18 10c-1.5 0-2.5 1-2.5 2.5M18.5 14c-1.5-.3-2.8.5-3.2 2" fill="none" stroke="currentColor" stroke-width="1.6" stroke-linecap="round" stroke-linejoin="round"/></symbol>
</svg>
